<svg id="visual" viewBox="0 0 960 540" width="960" height="540" xmlns="http://www.w3.org/2000/svg" xmlns:xlink="http://www.w3.org/1999/xlink" version="1.1"><rect x="0" y="0" width="960" height="540" fill="#ffffff"></rect><g transform="translate(-56.089247584071416 -28.08254354096323)"><path d="M364.5 -403.4C478.7 -338.5 582.1 -229.7 634.1 -89C686.2 51.8 686.9 224.4 595.7 308C504.6 391.5 321.6 386.1 162.5 441.9C3.5 497.7 -131.4 614.9 -255.7 609.9C-380 604.8 -493.5 477.7 -535.6 340.4C-577.7 203.2 -548.4 55.8 -534 -106C-519.5 -267.8 -520.1 -444.2 -433.6 -513.9C-347.1 -583.7 -173.6 -546.8 -24.2 -518C125.1 -489.1 250.3 -468.2 364.5 -403.4" fill="#55b5c4"></path></g></svg>